<svg xmlns="http://www.w3.org/2000/svg" xmlns:xlink="http://www.w3.org/1999/xlink" width="130" zoomAndPan="magnify" viewBox="0 0 97.5 97.5" height="130" preserveAspectRatio="xMidYMid meet" version="1"><defs><clipPath id="ca8a6670ec"><path d="M 8 12 L 86 12 L 86 86.554688 L 8 86.554688 Z M 8 12" clip-rule="nonzero"/></clipPath><clipPath id="62ae64e377"><path d="M 34 18 L 73 18 L 73 86.554688 L 34 86.554688 Z M 34 18" clip-rule="nonzero"/></clipPath><clipPath id="1fefb1fb02"><path d="M 68 30 L 88.839844 30 L 88.839844 41 L 68 41 Z M 68 30" clip-rule="nonzero"/></clipPath><clipPath id="2c9c5ab82b"><path d="M 67 30 L 88.839844 30 L 88.839844 42 L 67 42 Z M 67 30" clip-rule="nonzero"/></clipPath><clipPath id="6f2dd492f5"><path d="M 3 53 L 44 53 L 44 86.554688 L 3 86.554688 Z M 3 53" clip-rule="nonzero"/></clipPath><clipPath id="041952b911"><path d="M 3 79 L 13 79 L 13 86.554688 L 3 86.554688 Z M 3 79" clip-rule="nonzero"/></clipPath><clipPath id="7ac4a8cada"><path d="M 12 73 L 27 73 L 27 86.554688 L 12 86.554688 Z M 12 73" clip-rule="nonzero"/></clipPath></defs><g clip-path="url(#ca8a6670ec)"><path fill="#141413" d="M 67.144531 86.183594 L 19.328125 86.183594 C 14.84375 86.183594 11.972656 81.414062 14.070312 77.453125 C 15.132812 75.445312 14.960938 73.007812 13.628906 71.171875 L 10.738281 67.191406 C 5.058594 59.363281 8.953125 48.269531 18.28125 45.71875 L 20.394531 45.140625 C 27.257812 43.261719 31.117188 35.984375 28.820312 29.246094 C 25.375 19.140625 35.507812 9.722656 45.332031 13.894531 L 49.46875 15.652344 C 51.6875 16.59375 54.105469 16.960938 56.503906 16.722656 L 63.28125 16.046875 C 72.496094 15.125 80.242188 22.886719 79.300781 32.105469 L 77.765625 47.097656 C 77.382812 50.871094 78.476562 54.644531 80.816406 57.628906 L 82.402344 59.652344 C 87.453125 66.082031 86.257812 75.398438 79.75 80.347656 L 76.003906 83.199219 C 73.457031 85.136719 70.34375 86.183594 67.144531 86.183594 Z M 67.144531 86.183594" fill-opacity="1" fill-rule="nonzero"/></g><path fill="#fff" d="M 78.40625 85.683594 L 76.222656 85.683594 C 78.285156 79.503906 80.832031 76.636719 82.28125 75.667969 C 82.554688 75.488281 82.875 75.707031 82.84375 76.035156 C 82.4375 80.675781 79.757812 84.371094 78.40625 85.683594 Z M 78.40625 85.683594" fill-opacity="1" fill-rule="nonzero"/><path fill="#032068" d="M 82.550781 75.851562 C 82.585938 75.875 82.625 75.929688 82.617188 76.015625 C 82.222656 80.511719 79.65625 84.113281 78.3125 85.457031 L 76.542969 85.457031 C 78.578125 79.511719 81.042969 76.773438 82.410156 75.859375 C 82.46875 75.820312 82.515625 75.828125 82.550781 75.851562 Z M 82.804688 75.46875 C 82.617188 75.34375 82.371094 75.335938 82.15625 75.476562 C 80.648438 76.484375 78.074219 79.40625 76.007812 85.613281 L 75.90625 85.914062 L 78.5 85.914062 L 78.566406 85.851562 C 79.945312 84.507812 82.660156 80.765625 83.074219 76.054688 C 83.09375 75.808594 82.988281 75.589844 82.804688 75.46875 Z M 82.804688 75.46875" fill-opacity="1" fill-rule="evenodd"/><path fill="#032068" d="M 83.328125 63.371094 C 84.429688 72.042969 79.097656 81.957031 76.222656 85.914062 L 73.007812 85.914062 C 74.539062 69.5625 79.675781 63.917969 82.585938 62.871094 C 82.9375 62.746094 83.28125 63 83.328125 63.371094 Z M 83.328125 63.371094" fill-opacity="1" fill-rule="nonzero"/><path fill="#fff" d="M 79.859375 69.496094 L 80.945312 66.195312 L 81.382812 66.339844 L 78.671875 74.574219 L 80.726562 73.640625 L 80.914062 74.058594 L 78.476562 75.167969 L 76.238281 81.960938 L 78.1875 81 L 78.390625 81.410156 L 76.035156 82.574219 L 74.949219 85.871094 L 74.511719 85.726562 L 76.71875 79.027344 L 75.550781 76.121094 L 75.976562 75.949219 L 76.941406 78.351562 L 79.632812 70.179688 L 78.765625 67.960938 L 79.195312 67.792969 Z M 79.859375 69.496094" fill-opacity="1" fill-rule="evenodd"/><path fill="#fff" d="M 78 57.613281 C 81.441406 66.132812 77.074219 79.785156 74.386719 85.683594 L 70.59375 85.683594 C 70.679688 67.125 74.675781 59.382812 77.128906 57.355469 C 77.429688 57.109375 77.855469 57.253906 78 57.613281 Z M 78 57.613281" fill-opacity="1" fill-rule="nonzero"/><path fill="#032068" d="M 77.277344 57.535156 C 77.4375 57.402344 77.691406 57.457031 77.789062 57.699219 C 79.484375 61.898438 79.261719 67.386719 78.265625 72.589844 C 77.285156 77.707031 75.566406 82.507812 74.238281 85.457031 L 70.824219 85.457031 C 70.882812 76.3125 71.894531 69.832031 73.195312 65.386719 C 74.507812 60.894531 76.101562 58.503906 77.277344 57.535156 Z M 78.214844 57.527344 C 78.019531 57.046875 77.425781 56.816406 76.984375 57.179688 C 75.707031 58.234375 74.074219 60.730469 72.753906 65.257812 C 71.429688 69.792969 70.40625 76.390625 70.363281 85.683594 L 70.363281 85.914062 L 74.535156 85.914062 L 74.59375 85.78125 C 75.945312 82.816406 77.714844 77.910156 78.71875 72.675781 C 79.71875 67.445312 79.960938 61.847656 78.214844 57.527344 Z M 78.214844 57.527344" fill-opacity="1" fill-rule="evenodd"/><path fill="#032068" d="M 75.65625 66.589844 L 76.457031 61.863281 L 76.910156 61.941406 L 75.304688 71.429688 L 77.25 70.210938 L 77.496094 70.597656 L 75.203125 72.039062 L 73.855469 79.996094 L 75.316406 79.273438 L 75.519531 79.6875 L 73.761719 80.554688 L 72.890625 85.722656 L 72.4375 85.648438 L 73.878906 77.101562 L 72.457031 74.179688 L 72.867188 73.980469 L 74.011719 76.324219 L 75.53125 67.339844 L 74.066406 64.535156 L 74.472656 64.324219 Z M 75.65625 66.589844" fill-opacity="1" fill-rule="evenodd"/><path fill="#f4ad5e" d="M 84.1875 48.125 L 83.203125 49.390625 C 83.144531 49.464844 83.046875 49.503906 82.949219 49.484375 L 81.730469 49.257812 C 81.46875 49.207031 81.3125 49.539062 81.511719 49.710938 L 82.472656 50.535156 C 82.539062 50.59375 82.574219 50.6875 82.558594 50.777344 L 82.316406 52.132812 C 82.273438 52.386719 82.585938 52.546875 82.765625 52.359375 L 83.746094 51.316406 C 83.804688 51.253906 83.886719 51.222656 83.972656 51.234375 L 85.109375 51.390625 C 85.367188 51.425781 85.511719 51.105469 85.316406 50.9375 L 84.46875 50.195312 C 84.402344 50.136719 84.371094 50.046875 84.382812 49.957031 L 84.652344 48.328125 C 84.695312 48.0625 84.355469 47.914062 84.1875 48.125 Z M 84.1875 48.125" fill-opacity="1" fill-rule="nonzero"/><path fill="#f4ad5e" d="M 12.132812 39.855469 L 12.339844 40.832031 C 12.351562 40.894531 12.328125 40.953125 12.28125 40.992188 L 11.683594 41.464844 C 11.554688 41.566406 11.648438 41.777344 11.8125 41.753906 L 12.589844 41.644531 C 12.644531 41.636719 12.703125 41.660156 12.738281 41.707031 L 13.289062 42.375 C 13.394531 42.5 13.59375 42.417969 13.578125 42.257812 L 13.476562 41.371094 C 13.46875 41.320312 13.488281 41.269531 13.527344 41.234375 L 14.058594 40.769531 C 14.179688 40.664062 14.085938 40.464844 13.925781 40.484375 L 13.234375 40.574219 C 13.175781 40.582031 13.121094 40.5625 13.085938 40.515625 L 12.414062 39.722656 C 12.304688 39.59375 12.097656 39.691406 12.132812 39.855469 Z M 12.132812 39.855469" fill-opacity="1" fill-rule="nonzero"/><path fill="#fff" d="M 34.976562 21.617188 C 34.976562 19.96875 36.3125 18.628906 37.964844 18.628906 L 69.335938 18.628906 C 70.984375 18.628906 72.320312 19.96875 72.320312 21.617188 L 72.320312 82.957031 C 72.320312 84.609375 70.984375 85.945312 69.335938 85.945312 L 37.964844 85.945312 C 36.3125 85.945312 34.976562 84.609375 34.976562 82.957031 Z M 34.976562 21.617188" fill-opacity="1" fill-rule="evenodd"/><g clip-path="url(#62ae64e377)"><path fill="#032068" d="M 34.515625 21.617188 C 34.515625 19.714844 36.058594 18.171875 37.964844 18.171875 L 69.335938 18.171875 C 71.238281 18.171875 72.78125 19.714844 72.78125 21.617188 L 72.78125 82.957031 C 72.78125 84.863281 71.238281 86.40625 69.335938 86.40625 L 37.964844 86.40625 C 36.058594 86.40625 34.515625 84.863281 34.515625 82.957031 Z M 37.964844 18.628906 C 36.3125 18.628906 34.976562 19.96875 34.976562 21.617188 L 34.976562 82.957031 C 34.976562 84.609375 36.3125 85.945312 37.964844 85.945312 L 69.335938 85.945312 C 70.984375 85.945312 72.320312 84.609375 72.320312 82.957031 L 72.320312 21.617188 C 72.320312 19.96875 70.984375 18.628906 69.335938 18.628906 Z M 37.964844 18.628906" fill-opacity="1" fill-rule="evenodd"/></g><path fill="#032068" d="M 35.207031 21.617188 C 35.207031 20.09375 36.441406 18.859375 37.964844 18.859375 L 69.335938 18.859375 C 70.855469 18.859375 72.089844 20.09375 72.089844 21.617188 L 72.089844 82.957031 C 72.089844 84.480469 70.855469 85.714844 69.335938 85.714844 L 37.964844 85.714844 C 36.441406 85.714844 35.207031 84.480469 35.207031 82.957031 Z M 35.207031 21.617188" fill-opacity="1" fill-rule="nonzero"/><path fill="#fff" d="M 60.789062 45.175781 C 60.945312 45.035156 61.179688 45.019531 61.355469 45.140625 L 67.632812 49.394531 C 67.761719 49.480469 67.835938 49.625 67.835938 49.777344 L 67.835938 55.394531 C 67.835938 55.644531 67.628906 55.851562 67.375 55.851562 L 50.082031 55.851562 C 49.660156 55.851562 49.460938 55.332031 49.773438 55.050781 Z M 60.789062 45.175781" fill-opacity="1" fill-rule="nonzero"/><path fill="#f4ad5e" d="M 58.414062 40.226562 C 58.414062 41.621094 57.285156 42.753906 55.886719 42.753906 C 54.492188 42.753906 53.359375 41.621094 53.359375 40.226562 C 53.359375 38.832031 54.492188 37.699219 55.886719 37.699219 C 57.285156 37.699219 58.414062 38.832031 58.414062 40.226562 Z M 58.414062 40.226562" fill-opacity="1" fill-rule="nonzero"/><path fill="#fff" d="M 46.316406 21.101562 L 45.121094 18.859375 L 62.179688 18.859375 L 60.773438 21.203125 C 60.359375 21.894531 59.609375 22.316406 58.804688 22.316406 L 48.34375 22.316406 C 47.492188 22.316406 46.714844 21.851562 46.316406 21.101562 Z M 46.316406 21.101562" fill-opacity="1" fill-rule="nonzero"/><path fill="#fff" d="M 71.855469 20.234375 L 35.4375 20.234375 C 36.125 18.859375 37.371094 18.820312 37.800781 18.859375 L 69.144531 18.859375 C 70.824219 18.859375 71.542969 19.777344 71.855469 20.234375 Z M 71.855469 20.234375" fill-opacity="1" fill-rule="nonzero"/><path fill="#fff" d="M 71.742188 84.347656 L 35.4375 84.347656 C 36.695312 85.539062 37.421875 85.757812 37.863281 85.71875 L 69.3125 85.71875 C 70.863281 85.71875 71.417969 84.804688 71.742188 84.347656 Z M 71.742188 84.347656" fill-opacity="1" fill-rule="nonzero"/><path fill="#f4ad5e" d="M 40.492188 27.359375 C 40.492188 27.105469 40.695312 26.898438 40.949219 26.898438 L 49.222656 26.898438 C 49.476562 26.898438 49.683594 27.105469 49.683594 27.359375 L 49.683594 27.816406 C 49.683594 28.070312 49.476562 28.277344 49.222656 28.277344 L 40.949219 28.277344 C 40.695312 28.277344 40.492188 28.070312 40.492188 27.816406 Z M 40.492188 27.359375" fill-opacity="1" fill-rule="nonzero"/><path fill="#f4ad5e" d="M 41.179688 62.746094 C 41.179688 62.492188 41.386719 62.285156 41.640625 62.285156 L 54.277344 62.285156 C 54.53125 62.285156 54.738281 62.492188 54.738281 62.746094 L 54.738281 63.207031 C 54.738281 63.460938 54.53125 63.664062 54.277344 63.664062 L 41.640625 63.664062 C 41.386719 63.664062 41.179688 63.460938 41.179688 63.207031 Z M 41.179688 62.746094" fill-opacity="1" fill-rule="nonzero"/><path fill="#141413" d="M 41.179688 77.222656 C 41.179688 76.96875 41.386719 76.761719 41.640625 76.761719 L 54.277344 76.761719 C 54.53125 76.761719 54.738281 76.96875 54.738281 77.222656 L 54.738281 77.683594 C 54.738281 77.9375 54.53125 78.140625 54.277344 78.140625 L 41.640625 78.140625 C 41.386719 78.140625 41.179688 77.9375 41.179688 77.683594 Z M 41.179688 77.222656" fill-opacity="1" fill-rule="nonzero"/><path fill="#141413" d="M 41.179688 68.949219 C 41.179688 68.695312 41.386719 68.492188 41.640625 68.492188 L 65.769531 68.492188 C 66.023438 68.492188 66.226562 68.695312 66.226562 68.949219 L 66.226562 69.410156 C 66.226562 69.664062 66.023438 69.867188 65.769531 69.867188 L 41.640625 69.867188 C 41.386719 69.867188 41.179688 69.664062 41.179688 69.410156 Z M 41.179688 68.949219" fill-opacity="1" fill-rule="nonzero"/><path fill="#141413" d="M 41.179688 72.855469 C 41.179688 72.601562 41.386719 72.398438 41.640625 72.398438 L 65.769531 72.398438 C 66.023438 72.398438 66.226562 72.601562 66.226562 72.855469 L 66.226562 73.316406 C 66.226562 73.570312 66.023438 73.777344 65.769531 73.777344 L 41.640625 73.777344 C 41.386719 73.777344 41.179688 73.570312 41.179688 73.316406 Z M 41.179688 72.855469" fill-opacity="1" fill-rule="nonzero"/><path fill="#141413" d="M 39.34375 32.644531 C 39.34375 32.261719 39.652344 31.953125 40.03125 31.953125 L 67.375 31.953125 C 67.757812 31.953125 68.066406 32.261719 68.066406 32.644531 L 68.066406 55.394531 C 68.066406 55.773438 67.757812 56.082031 67.375 56.082031 L 40.03125 56.082031 C 39.652344 56.082031 39.34375 55.773438 39.34375 55.394531 Z M 40.03125 32.414062 C 39.90625 32.414062 39.800781 32.515625 39.800781 32.644531 L 39.800781 55.394531 C 39.800781 55.519531 39.90625 55.621094 40.03125 55.621094 L 67.375 55.621094 C 67.503906 55.621094 67.605469 55.519531 67.605469 55.394531 L 67.605469 32.644531 C 67.605469 32.515625 67.503906 32.414062 67.375 32.414062 Z M 40.03125 32.414062" fill-opacity="1" fill-rule="evenodd"/><path fill="#141413" d="M 39.570312 49.640625 C 39.570312 49.5 39.636719 49.367188 39.746094 49.28125 L 48.121094 42.648438 C 48.292969 42.507812 48.539062 42.515625 48.707031 42.660156 L 62.890625 55.046875 C 63.210938 55.324219 63.015625 55.851562 62.589844 55.851562 L 40.03125 55.851562 C 39.777344 55.851562 39.570312 55.644531 39.570312 55.394531 Z M 39.570312 49.640625" fill-opacity="1" fill-rule="nonzero"/><path fill="#141413" d="M 48.554688 42.835938 C 48.472656 42.761719 48.347656 42.757812 48.261719 42.828125 L 39.890625 49.460938 C 39.835938 49.503906 39.800781 49.570312 39.800781 49.640625 L 39.800781 55.394531 C 39.800781 55.519531 39.90625 55.621094 40.03125 55.621094 L 62.589844 55.621094 C 62.800781 55.621094 62.902344 55.359375 62.742188 55.21875 Z M 47.976562 42.46875 C 48.238281 42.261719 48.609375 42.269531 48.859375 42.488281 L 63.042969 54.875 C 63.523438 55.292969 63.226562 56.082031 62.589844 56.082031 L 40.03125 56.082031 C 39.652344 56.082031 39.34375 55.773438 39.34375 55.394531 L 39.34375 49.640625 C 39.34375 49.429688 39.4375 49.230469 39.605469 49.101562 Z M 47.976562 42.46875" fill-opacity="1" fill-rule="evenodd"/><path fill="#fff" d="M 69.042969 22.144531 L 69.503906 22.144531 L 69.503906 24.023438 L 69.042969 24.023438 Z M 69.042969 22.144531" fill-opacity="1" fill-rule="evenodd"/><path fill="#fff" d="M 67.867188 22.378906 L 68.328125 22.378906 L 68.328125 24.023438 L 67.867188 24.023438 Z M 67.867188 22.378906" fill-opacity="1" fill-rule="evenodd"/><path fill="#fff" d="M 66.691406 22.851562 L 67.152344 22.851562 L 67.152344 24.023438 L 66.691406 24.023438 Z M 66.691406 22.851562" fill-opacity="1" fill-rule="evenodd"/><path fill="#fff" d="M 65.519531 23.320312 L 65.976562 23.320312 L 65.976562 24.023438 L 65.519531 24.023438 Z M 65.519531 23.320312" fill-opacity="1" fill-rule="evenodd"/><path fill="#f4ad5e" d="M 17.277344 33.332031 C 20.453125 33.332031 23.027344 30.8125 23.027344 27.703125 C 23.027344 24.59375 20.453125 22.074219 17.277344 22.074219 C 16.550781 22.074219 15.855469 22.207031 15.214844 22.445312 C 16.589844 22.660156 19.34375 24.007812 19.34375 27.703125 C 19.34375 31.398438 16.589844 32.746094 15.214844 32.960938 C 15.855469 33.199219 16.550781 33.332031 17.277344 33.332031 Z M 17.277344 33.332031" fill-opacity="1" fill-rule="nonzero"/><g clip-path="url(#1fefb1fb02)"><path fill="#fff" d="M 68.066406 31.496094 C 68.066406 31.113281 68.375 30.804688 68.753906 30.804688 L 87.828125 30.804688 C 88.207031 30.804688 88.515625 31.113281 88.515625 31.496094 L 88.515625 40.226562 C 88.515625 40.605469 88.207031 40.914062 87.828125 40.914062 L 68.753906 40.914062 C 68.375 40.914062 68.066406 40.605469 68.066406 40.226562 Z M 68.066406 31.496094" fill-opacity="1" fill-rule="nonzero"/></g><g clip-path="url(#2c9c5ab82b)"><path fill="#032068" d="M 67.835938 31.496094 C 67.835938 30.988281 68.246094 30.574219 68.753906 30.574219 L 87.828125 30.574219 C 88.335938 30.574219 88.746094 30.988281 88.746094 31.496094 L 88.746094 40.226562 C 88.746094 40.734375 88.335938 41.144531 87.828125 41.144531 L 68.753906 41.144531 C 68.246094 41.144531 67.835938 40.734375 67.835938 40.226562 Z M 68.753906 31.035156 C 68.5 31.035156 68.296875 31.242188 68.296875 31.496094 L 68.296875 40.226562 C 68.296875 40.480469 68.5 40.6875 68.753906 40.6875 L 87.828125 40.6875 C 88.082031 40.6875 88.289062 40.480469 88.289062 40.226562 L 88.289062 31.496094 C 88.289062 31.242188 88.082031 31.035156 87.828125 31.035156 Z M 68.753906 31.035156" fill-opacity="1" fill-rule="evenodd"/></g><path fill="#f4ad5e" d="M 69.902344 35.859375 C 69.902344 34.335938 71.136719 33.101562 72.660156 33.101562 L 83.921875 33.101562 C 85.445312 33.101562 86.679688 34.335938 86.679688 35.859375 C 86.679688 37.382812 85.445312 38.617188 83.921875 38.617188 L 72.660156 38.617188 C 71.136719 38.617188 69.902344 37.382812 69.902344 35.859375 Z M 69.902344 35.859375" fill-opacity="1" fill-rule="nonzero"/><path fill="#fff" d="M 85.761719 35.859375 C 85.761719 37.003906 84.78125 37.929688 83.578125 37.929688 C 82.371094 37.929688 81.394531 37.003906 81.394531 35.859375 C 81.394531 34.71875 82.371094 33.792969 83.578125 33.792969 C 84.78125 33.792969 85.761719 34.71875 85.761719 35.859375 Z M 85.761719 35.859375" fill-opacity="1" fill-rule="nonzero"/><path fill="#f4ad5e" d="M 83.65625 37.238281 C 84.3125 37.238281 84.839844 36.621094 84.839844 35.859375 C 84.839844 35.097656 84.3125 34.480469 83.65625 34.480469 C 83.507812 34.480469 83.363281 34.515625 83.230469 34.574219 C 83.515625 34.625 84.082031 34.957031 84.082031 35.859375 C 84.082031 36.765625 83.515625 37.097656 83.230469 37.148438 C 83.363281 37.207031 83.507812 37.238281 83.65625 37.238281 Z M 83.65625 37.238281" fill-opacity="1" fill-rule="nonzero"/><path fill="#efcb96" d="M 22.058594 41.082031 C 18.5 43.601562 19.996094 48.078125 20.664062 49.8125 L 20.371094 53.355469 C 20.675781 54.46875 21.78125 56.695312 23.761719 56.695312 C 25.742188 56.695312 26.652344 54.792969 26.859375 53.84375 L 26.550781 51.15625 C 28.871094 50.316406 29.027344 46.960938 28.871094 44.273438 C 28.6875 41.082031 25.195312 38.867188 22.058594 41.082031 Z M 22.058594 41.082031" fill-opacity="1" fill-rule="nonzero"/><g clip-path="url(#6f2dd492f5)"><path fill="#f4ad5e" d="M 23.574219 55.429688 C 25.898438 55.429688 26.992188 54 27.246094 53.285156 C 31.683594 53.285156 35.351562 56.347656 37.035156 58.488281 C 38.71875 60.628906 44.992188 71.949219 43.460938 76.539062 C 42.238281 80.210938 39.28125 80.773438 37.648438 80.519531 L 37.914062 85.296875 C 37.9375 85.691406 37.621094 86.027344 37.226562 86.027344 L 14.851562 86.027344 C 12.507812 86.179688 7.386719 86.238281 5.675781 85.261719 C 3.53125 84.035156 1.542969 77.765625 5.675781 65.371094 C 8.980469 55.460938 16.742188 53.183594 20.207031 53.285156 C 20.359375 54 21.25 55.429688 23.574219 55.429688 Z M 23.574219 55.429688" fill-opacity="1" fill-rule="nonzero"/></g><g clip-path="url(#041952b911)"><path fill="#032068" d="M 12.433594 86.035156 C 8.746094 81.539062 4.84375 79.933594 3.355469 79.695312 C 3.355469 81.136719 4.078125 83.875 5.375 85.171875 C 6.410156 86.207031 10.511719 86.179688 12.433594 86.035156 Z M 12.433594 86.035156" fill-opacity="1" fill-rule="nonzero"/></g><path fill="#032068" d="M 40.957031 79.984375 C 43.378906 79.0625 43.792969 75.757812 43.695312 74.21875 C 41.507812 75.257812 38.558594 78.78125 37.355469 80.414062 C 37.550781 80.65625 38.539062 80.90625 40.957031 79.984375 Z M 40.957031 79.984375" fill-opacity="1" fill-rule="nonzero"/><path fill="#032068" d="M 23.265625 69.503906 C 22.195312 69.960938 14.242188 73.683594 10.570312 75.46875 C 11.027344 74.703125 12.863281 73.480469 13.324219 73.023438 C 13.78125 72.5625 15.464844 67.207031 15.464844 67.972656 C 15.464844 68.738281 14.546875 72.257812 15.007812 72.257812 C 15.464844 72.257812 21.890625 69.503906 23.265625 69.503906 Z M 23.265625 69.503906" fill-opacity="1" fill-rule="nonzero"/><g clip-path="url(#7ac4a8cada)"><path fill="#032068" d="M 26.480469 73.941406 C 19.992188 82.628906 14.699219 85.71875 12.863281 86.179688 L 16.078125 86.179688 C 21.585938 81.894531 25.308594 76.234375 26.480469 73.941406 Z M 26.480469 73.941406" fill-opacity="1" fill-rule="nonzero"/></g><path fill="#032068" d="M 34.4375 72.410156 C 34.679688 75.347656 36.78125 79.039062 37.800781 80.519531 L 37.800781 81.894531 C 35.476562 79.324219 34.589844 74.5 34.4375 72.410156 Z M 34.4375 72.410156" fill-opacity="1" fill-rule="nonzero"/><path fill="#032068" d="M 37.34375 68.277344 C 38.199219 68.769531 39.738281 69.910156 40.402344 70.421875 L 37.953125 67.515625 C 37.832031 68.003906 37.496094 68.226562 37.34375 68.277344 Z M 37.34375 68.277344" fill-opacity="1" fill-rule="nonzero"/><path fill="#fff" d="M 28.296875 62.65625 L 27.125 74.09375 C 27.109375 74.246094 27.242188 74.371094 27.390625 74.34375 L 32.894531 73.355469 C 32.992188 73.339844 33.070312 73.261719 33.082031 73.164062 L 34.699219 62.289062 C 34.722656 62.144531 34.601562 62.015625 34.457031 62.027344 L 28.507812 62.453125 C 28.398438 62.460938 28.308594 62.546875 28.296875 62.65625 Z M 28.296875 62.65625" fill-opacity="1" fill-rule="nonzero"/><path fill="#032068" d="M 34.4375 61.796875 C 34.734375 61.777344 34.96875 62.035156 34.925781 62.324219 L 33.308594 73.199219 C 33.28125 73.394531 33.132812 73.546875 32.9375 73.582031 L 27.433594 74.570312 C 27.132812 74.625 26.863281 74.375 26.894531 74.070312 L 28.066406 62.632812 C 28.089844 62.414062 28.269531 62.238281 28.492188 62.222656 Z M 34.472656 62.257812 L 28.523438 62.679688 L 27.351562 74.117188 L 32.855469 73.128906 Z M 34.472656 62.257812" fill-opacity="1" fill-rule="evenodd"/><path fill="#efcb96" d="M 36.269531 68.277344 L 34.433594 71.03125 C 31.988281 71.1875 31.527344 69.808594 31.988281 67.667969 C 32.355469 65.953125 33.722656 65.933594 34.28125 66.136719 L 34.589844 64.914062 C 36.269531 66.289062 36.269531 67.617188 36.269531 68.277344 Z M 36.269531 68.277344" fill-opacity="1" fill-rule="nonzero"/><path fill="#032068" d="M 20.777344 48.9375 L 20.46875 51.980469 C 20.367188 51.753906 20.128906 51.101562 20.007812 50.289062 C 19.851562 49.273438 17.382812 45.382812 18.15625 42.507812 C 18.773438 40.210938 20.46875 40.3125 21.238281 40.648438 C 21.703125 39.804688 24.480469 36.929688 28.488281 37.265625 C 32.5 37.605469 32.964844 43.355469 29.722656 44.199219 C 27.132812 44.878906 24.222656 44.484375 23.089844 44.199219 C 22.988281 44.425781 22.691406 45.179688 22.320312 46.398438 C 21.855469 47.921875 21.855469 48.257812 21.703125 47.246094 C 21.546875 46.230469 20.933594 44.371094 20.160156 46.230469 C 19.542969 47.71875 20.316406 48.652344 20.777344 48.9375 Z M 20.777344 48.9375" fill-opacity="1" fill-rule="nonzero"/><path fill="#032068" d="M 23.019531 51.09375 C 24.078125 51.71875 25.902344 51.402344 26.589844 51.140625 L 26.703125 52.175781 C 25.171875 52.550781 23.558594 51.617188 23.019531 51.09375 Z M 23.019531 51.09375" fill-opacity="1" fill-rule="nonzero"/><path fill="#efcb96" d="M 25.5625 67.972656 C 25.195312 68.953125 24.492188 69.605469 24.183594 69.808594 L 26.175781 72.867188 C 26.785156 72.257812 27.550781 72.257812 29.234375 71.492188 C 30.917969 70.726562 31.375 67.972656 30.917969 66.445312 C 30.550781 65.21875 28.417969 66.136719 27.550781 66.75 L 27.703125 65.066406 C 26.632812 65.527344 26.019531 66.75 25.5625 67.972656 Z M 25.5625 67.972656" fill-opacity="1" fill-rule="nonzero"/></svg>