<svg height="130" preserveAspectRatio="xMidYMid meet" viewBox="0 0 97.5 97.499997" width="130" xmlns="http://www.w3.org/2000/svg" xmlns:xlink="http://www.w3.org/1999/xlink" zoomAndPan="magnify"><clipPath id="a"><path d="m3.164062 44h17.835938v9h-17.835938zm0 0"/></clipPath><clipPath id="b"><path d="m7 10.667969h25v12.332031h-25zm0 0"/></clipPath><path d="m83.882812 23.660156c0-.578125-.148437-1.117187-.445312-1.617187s-.703125-.886719-1.21875-1.164063c-.511719-.277344-1.0625-.402344-1.644531-.382812-.585938.023437-1.121094.191406-1.613281.507812-.179688-.410156-.417969-.78125-.71875-1.113281-.300782-.332031-.644532-.609375-1.035157-.835937-.390625-.222657-.804687-.378907-1.246093-.46875-.441407-.089844-.886719-.109376-1.335938-.054688-.445312.050781-.875.171875-1.28125.359375-.410156.1875-.777344.4375-1.105469.742187-.328125.308594-.597656.65625-.8125 1.050782-.214843.390625-.359375.808594-.441406 1.25-.171875-.109375-.359375-.195313-.554687-.257813-.191407-.066406-.394532-.109375-.597657-.128906-.203125-.015625-.410156-.011719-.613281.015625s-.402344.078125-.59375.152344c-.191406.074218-.371094.167968-.542969.28125-.167969.117187-.324219.25-.460937.398437-.140625.152344-.257813.316407-.359375.492188-.101563.179687-.179688.367187-.238281.5625-.054688.195312-.089844.394531-.097657.597656-.011719.203125 0 .40625.039063.609375.035156.199219.097656.394531.179687.578125.082031.1875.183594.363281.304688.527344.125.164062.265625.3125.421875.441406.15625.132813.328125.242187.511718.335937.183594.09375.375.160157.574219.210938.199219.046875.402344.070312.609375.074219h11.300782c.40625-.023438.792968-.121094 1.164062-.289063.371094-.171875.695312-.402344.976562-.699218.28125-.292969.496094-.628907.648438-1.003907s.226562-.765625.226562-1.171875zm0 0" fill="#f5f5f5"/><g clip-path="url(#a)"><path d="m20.34375 49.625c0-.578125-.148438-1.117188-.445312-1.617188-.300782-.496093-.703126-.886718-1.21875-1.164062-.511719-.273438-1.0625-.402344-1.644532-.378906-.585937.023437-1.121094.191406-1.613281.507812-.179687-.410156-.417969-.78125-.71875-1.117187-.300781-.332031-.644531-.613281-1.035156-.835938-.390625-.222656-.804688-.378906-1.246094-.46875-.441406-.089843-.886719-.109375-1.335937-.058593-.445313.054687-.875.175781-1.28125.363281-.410157.1875-.777344.4375-1.105469.742187-.328125.308594-.601563.65625-.8125 1.050782-.214844.394531-.363281.808593-.441407 1.25-.175781-.105469-.359374-.191407-.554687-.257813s-.394531-.105469-.597656-.125c-.207031-.019531-.410157-.015625-.613281.011719-.203126.03125-.402344.082031-.59375.152344-.191407.074218-.371094.167968-.542969.285156-.167969.113281-.324219.246094-.460938.398437-.140625.148438-.261719.3125-.359375.492188-.101562.175781-.179687.363281-.238281.558593-.054687.195313-.089844.398438-.101563.601563-.007812.203125.003907.40625.042969.605469.035157.199218.09375.394531.175781.582031.082032.1875.1875.363281.308594.523437.121094.164063.261719.3125.421875.445313.15625.128906.328125.242187.511719.332031.179688.09375.375.164063.574219.210938.199219.050781.402343.074218.605469.074218h11.304687c.410156-.023437.796875-.117187 1.167969-.289062s.695312-.402344.976562-.699219c.277344-.292969.496094-.628906.644532-1.003906.152343-.375.226562-.765625.226562-1.171875zm0 0" fill="#f5f5f5"/></g><g clip-path="url(#b)"><path d="m31.878906 18.207031c0-.820312-.210937-1.578125-.632812-2.28125-.417969-.699219-.992188-1.246093-1.714844-1.636719-.722656-.390624-1.496094-.570312-2.320312-.539062-.820313.03125-1.578126.269531-2.269532.710938-.253906-.574219-.589844-1.097657-1.011718-1.566407-.425782-.46875-.910157-.863281-1.460938-1.175781s-1.136719-.535156-1.757812-.660156c-.621094-.128906-1.246094-.152344-1.875-.082032-.632813.074219-1.234376.246094-1.808594.511719-.574219.265625-1.09375.613281-1.554688 1.042969-.464844.433594-.84375.925781-1.148437 1.480469-.300781.550781-.507813 1.136719-.617188 1.757812-.25-.152343-.507812-.277343-.785156-.367187-.277344-.09375-.558594-.15625-.847656-.183594-.289063-.027344-.578125-.019531-.867188.019531-.289062.035157-.570312.109375-.839843.210938-.273438.105469-.53125.238281-.769532.398437-.242187.164063-.460937.351563-.65625.5625-.199218.214844-.367187.445313-.507812.699219-.144532.25-.253906.515625-.335938.792969-.082031.277344-.128906.5625-.140625.847656-.015625.289062.003907.578125.058594.859375.050781.285156.136719.558594.253906.824219.117188.265625.261719.511718.4375.742187s.375.4375.597657.625c.222656.183594.464843.339844.726562.46875.261719.128907.53125.226563.816406.292969.28125.066406.570313.101562.859375.101562h15.925781c.574219-.03125 1.121094-.167968 1.640626-.40625.523437-.242187.980468-.570312 1.378906-.984374.394531-.414063.695312-.886719.910156-1.417969.210938-.53125.316406-1.078125.316406-1.648438zm0 0" fill="#f5f5f5"/></g><path d="m82.980469 28.320312s4.117187-1.105468 6.691406 9.109376c2.488281 9.878906.398437 10.40625.011719 10.605468-1.265625.65625-9.34375 1.605469-13.550782.328125-4.203124-1.277343-14.191406-3.832031-14.191406-3.832031s5.863282 1.574219 6.96875-7.574219c1.109375-9.148437 8.0625-13.234375 14.070313-8.636719zm0 0" fill="#2b2b2b"/><path d="m79.171875 46.179688c.925781.011718 1.804687-.179688 2.640625-.578126.832031-.398437 1.535156-.960937 2.097656-1.6875 1.421875-1.875 4.441406-3.703124 3.867188-9.617187-.597656-6.09375-9.949219-8.335937-13.53125-5.894531-5.605469 3.800781-4.988282 11.597656-2.75 15.136718 1.390625 2.1875 5.082031 2.621094 7.675781 2.640626zm0 0" fill="#2b2b2b"/><path d="m80.84375 43.828125s-.738281 3.832031-.964844 5.625c0 0-7.402344 6.84375-6.792968-.386719 0 0 1.378906-6.121094 1.664062-9.164062.285156-3.042969 6.09375 3.925781 6.09375 3.925781zm0 0" fill="#ffe1b6"/><path d="m74.515625 41.773438 5.980469 3.917968s-3.109375 3.972656-7.371094 3.15625c0 0 .976562-4.253906 1.390625-7.074218zm0 0" fill="#2b2b2b"/><path d="m73.269531 31.488281s-3.628906 6.96875-1.050781 11.699219c2.355469 4.316406 6.789062 4.734375 11.015625.59375 0 0 1.15625.925781 2.414063-.542969 1.257812-1.46875 1.882812-3.773437-1.320313-3.144531 0 0 1.660156-3.660156.578125-6.789062-.976562-2.839844-10.15625-3.6875-11.636719-1.816407zm0 0" fill="#ffe1b6"/><path d="m79.722656 38.476562c-.148437.558594.054688 1.09375.449219 1.191407.394531.101562.832031-.273438.980469-.832031.148437-.5625-.058594-1.09375-.453125-1.191407-.394531-.097656-.832031.273438-.976563.832031zm0 0" fill="#2b2b2b"/><path d="m75.492188 36.867188c.203124.015624.363281.132812.488281.351562.125.214844.175781.46875.148437.753906-.027344.289063-.121094.527344-.285156.71875-.164062.1875-.34375.273438-.546875.253906-.203125-.015624-.367187-.136718-.492187-.351562s-.171876-.46875-.144532-.753906c.027344-.289063.121094-.527344.285156-.71875.160157-.1875.34375-.273438.546876-.253906zm0 0" fill="#2b2b2b"/><path d="m78.179688 38.355469c-.253907.328125-.527344.640625-.820313.9375-.128906.125-.269531.230469-.425781.320312-.40625.339844.09375.839844.355468 1.101563.078126.074218.15625.148437.226563.226562.023437.023438.042969.054688.050781.089844.007813-.039062 0-.074219-.015625-.105469-.117187-.21875-.242187-.429687-.382812-.636719-.066407-.101562-.113281-.214843-.136719-.335937-.007812-.066406.019531-.113281.078125-.144531l.089844-.054688c.480469-.359375.804687-.824218.972656-1.398437zm0 0" fill="#2b2b2b"/><path d="m73.019531 35.871094c.324219-.121094.65625-.21875.992188-.292969.332031-.074219.664062-.105469 1.003906-.089844.316406.027344.625.097657.921875.207031.324219.109376.648438.234376.992188.351563l.023437-.035156c-.125-.128907-.261719-.246094-.40625-.351563-.433594-.304687-.980469-.621094-1.542969-.605468-.550781.078124-1.070312.246093-1.558594.507812-.15625.082031-.304687.171875-.449218.273438l.023437.039062zm0 0" fill="#2b2b2b"/><path d="m83.734375 37.792969c-.34375-.652344-.820313-1.1875-1.433594-1.605469-.488281-.253906-1.105469-.222656-1.632812-.148438-.183594.027344-.359375.070313-.535157.125v.042969c.355469.054688.710938.089844 1.046876.144531.316406.03125.621093.109376.914062.230469.308594.132813.589844.308594.847656.527344.265625.214844.515625.449219.742188.703125l.039062-.019531zm0 0" fill="#2b2b2b"/><path d="m71.539062 41.398438s-1.398437.492187-2.09375-1.304688c-.699218-1.796875-.519531-4.179688 2.289063-2.535156" fill="#ffe1b6"/><path d="m80.140625 33.265625c.085937.113281.199219.179687.34375.195313.140625.019531.269531-.011719.382813-.101563.132812-.101563.285156-.15625.453124-.160156.167969-.003907.320313.042969.457032.144531 2.152344 1.277344.300781 6.390625 2.519531 6.765625l1.835937-3.332031-.617187-4.636719-2.914063-1.828125-5.042968-.40625-4.144532.785156s-2.269531 3.941406-1.984374 6.699219c0 0 1.800781-.113281 2.601562-2.503906.734375-2.210938 4.503906-3.683594 6.109375-1.621094zm0 0" fill="#2b2b2b"/><path d="m73.410156 47.238281s1.796875 5.296875 6.550782 1.699219c0 0 5.078124 1.171875 6.023437 2.023438.710937.644531-3.320313 23.484374-6.695313 31.238281 0 0-16.898437 3.828125-15.46875-10.484375 0 0-.917968-23.277344.285157-23.890625 1.207031-.617188 9.304687-.585938 9.304687-.585938zm0 0" fill="#ffc010"/><path d="m74.621094 82.832031h-.089844c-2.453125-.007812-5.871094-.449219-8.214844-2.5-2.152344-1.882812-3.050781-4.785156-2.664062-8.625-.007813-.296875-.230469-6.003906-.304688-11.707031-.160156-11.898438.433594-12.199219.6875-12.335938 1.230469-.625 9.050782-.605468 9.382813-.605468.082031.003906.132812.042968.160156.117187 0 .019531.765625 2.1875 2.515625 2.71875 1.097656.332031 2.367188-.039062 3.769531-1.101562.085938-.035157.15625-.015625.210938.054687.058593.074219.058593.144532 0 .21875-1.5 1.132813-2.871094 1.519532-4.085938 1.152344-1.695312-.515625-2.507812-2.335938-2.695312-2.820312-2.820313 0-8.191407.105468-9.105469.570312-.074219.058594-.34375.527344-.464844 3.972656-.070312 2.011719-.082031 4.757813-.035156 8.15625.078125 5.789063.304688 11.546875.308594 11.605469v.019531c-.375 3.730469.484375 6.539063 2.554687 8.351563 4.335938 3.789062 12.625 1.96875 12.707031 1.953125.109376-.019532.175782.023437.203126.125.023437.109375-.019532.175781-.125.207031-1.558594.3125-3.128907.472656-4.714844.472656zm0 0" fill="#2b2b2b"/><path d="m90.875 48.042969c-.066406-.011719-.113281-.046875-.140625-.105469-.023437-.058594-.019531-.117188.019531-.171875 3.445313-3.90625-2.472656-16.027344-2.53125-16.148437-.945312-1.808594-2.035156-2.90625-3.238281-3.261719-.65625-.207031-1.292969-.167969-1.914063.121093-.089843.03125-.160156.003907-.207031-.078124-.050781-.082032-.039062-.152344.03125-.21875.703125-.34375 1.425781-.394532 2.171875-.160157 1.300782.378907 2.464844 1.539063 3.457032 3.4375 1.03125 2.164063 1.898437 4.394531 2.601562 6.683594 1.441406 4.808594 1.402344 8.121094-.117188 9.84375-.039062.039063-.082031.058594-.132812.058594zm0 0" fill="#2b2b2b"/><path d="m77.9375 42.925781c-.386719-.003906-.742188-.109375-1.066406-.308593-.058594-.070313-.0625-.140626-.007813-.214844.050781-.074219.121094-.097656.203125-.066406.050782.035156 1.117188.753906 2.210938-.398438.027344-.050781.070312-.082031.128906-.089844.058594-.007812.109375.007813.148438.046875.042968.039063.0625.085938.054687.144531-.003906.058594-.03125.101563-.082031.132813-.5625.585937-1.128906.753906-1.589844.753906zm0 0" fill="#2b2b2b"/><path d="m69.8125 81.125c0 .324219-.058594.636719-.183594.9375-.121094.300781-.300781.570312-.53125.800781-.230468.230469-.496094.410157-.796875.535157-.304687.125-.617187.191406-.945312.191406l-49.871094.125c-.328125 0-.644531-.058594-.949219-.183594-.300781-.121094-.570312-.296875-.804687-.523438-.230469-.230468-.414063-.492187-.539063-.792968-.128906-.300782-.191406-.613282-.195312-.9375l-.011719-2.484375-.285156-49.964844-.015625-3.339844c-.003906-.324219.058594-.636719.183594-.9375.121093-.300781.300781-.570312.53125-.800781.230468-.230469.496093-.410156.796874-.535156.304688-.125.617188-.191406.945313-.191406l6.960937-.03125 2.453126-.042969h31.148437l3.375-.023438 5.941406-.027343c.328125-.003907.640625.058593.945313.179687.304687.121094.574218.296875.804687.527344.234375.226562.414063.492187.542969.792969.125.296874.191406.609374.191406.9375l.019532 3.488281.269531 49.964843zm0 0" fill="#fff"/><path d="m19.792969 23.976562h44.601562c.335938 0 .667969.035157.996094.097657.328125.066406.648437.160156.957031.289062.3125.128907.605469.285157.886719.46875.277344.183594.535156.394531.773437.628907.234376.238281.449219.492187.632813.769531.1875.277343.34375.570312.472656.875.128907.308593.226563.625.292969.953125.0625.324218.097656.65625.097656.988281v1.785156h-54.820312v-1.789062c0-.332031.03125-.660157.097656-.988281.066406-.324219.164062-.644532.289062-.949219.128907-.308594.289063-.601563.472657-.875.1875-.277344.398437-.535157.636719-.769531.238281-.234376.496093-.445313.773437-.628907.28125-.1875.574219-.34375.882813-.46875.3125-.128906.632812-.222656.960937-.289062.328125-.0625.660156-.097657.996094-.097657zm0 0" fill="#ffc010"/><path d="m69.503906 31h-54.820312c-.089844-.023438-.132813-.082031-.132813-.171875s.042969-.144531.132813-.167969h54.820312c.054688-.015625.105469-.003906.152344.03125s.070312.082032.070312.136719c0 .058594-.023437.105469-.070312.140625s-.097656.046875-.152344.03125zm0 0" fill="#2b2b2b"/><path d="m21.164062 26.8125c0 .230469-.042968.453125-.132812.667969-.089844.210937-.214844.402343-.378906.5625-.167969.164062-.355469.292969-.570313.378906-.21875.089844-.441406.132813-.675781.132813-.230469 0-.457031-.042969-.671875-.132813-.214844-.085937-.40625-.214844-.570313-.378906-.164062-.160157-.292968-.351563-.382812-.5625-.089844-.214844-.132812-.4375-.132812-.667969 0-.234375.042968-.453125.132812-.667969.089844-.214843.21875-.402343.382812-.566406.164063-.164063.355469-.289063.570313-.378906.214844-.089844.441406-.132813.671875-.132813.234375 0 .457031.042969.675781.132813.214844.089843.402344.214843.570313.378906.164062.164063.289062.351563.378906.566406.089844.214844.132812.433594.132812.667969zm0 0" fill="#fff"/><path d="m26.902344 26.8125c0 .230469-.042969.453125-.132813.667969-.089843.210937-.214843.402343-.382812.5625-.164063.164062-.355469.292969-.570313.378906-.214844.089844-.4375.132813-.671875.132813s-.457031-.042969-.671875-.132813c-.214844-.085937-.40625-.214844-.570312-.378906-.167969-.160157-.292969-.351563-.382813-.5625-.089843-.214844-.132812-.4375-.132812-.667969 0-.234375.042969-.453125.132812-.667969.089844-.214843.214844-.402343.382813-.566406.164062-.164063.355468-.289063.570312-.378906.214844-.089844.4375-.132813.671875-.132813s.457031.042969.671875.132813c.214844.089843.40625.214843.570313.378906.167969.164063.292969.351563.382812.566406.089844.214844.132813.433594.132813.667969zm0 0" fill="#fff"/><path d="m32.558594 26.8125c0 .230469-.046875.453125-.136719.667969-.089844.210937-.214844.402343-.378906.5625-.167969.164062-.355469.292969-.570313.378906-.21875.089844-.441406.132813-.675781.132813-.230469 0-.457031-.042969-.671875-.132813-.214844-.085937-.40625-.214844-.570312-.378906-.164063-.160157-.292969-.351563-.382813-.5625-.085937-.214844-.132813-.4375-.132813-.667969 0-.234375.046876-.453125.132813-.667969.089844-.214843.21875-.402343.382813-.566406.164062-.164063.355468-.289063.570312-.378906.214844-.089844.441406-.132813.671875-.132813.234375 0 .457031.042969.675781.132813.214844.089843.402344.214843.570313.378906.164062.164063.289062.351563.378906.566406.089844.214844.136719.433594.136719.667969zm0 0" fill="#fff"/><path d="m17.472656 83.890625c-.347656 0-.683594-.066406-1.007812-.199219-.320313-.132812-.605469-.320312-.855469-.566406-.246094-.242188-.4375-.523438-.570313-.84375-.136718-.320312-.207031-.652344-.207031-.996094l-.015625-2.484375-.289062-49.972656-.015625-3.335937c-.003907-.347657.0625-.683594.191406-1.007813.132813-.324219.320313-.609375.570313-.855469.246093-.25.53125-.441406.855468-.578125.324219-.132812.660156-.203125 1.011719-.203125l6.957031-.03125 36.972656-.066406 5.941407-.027344h.011719c.347656 0 .683593.066406 1.007812.199219.320312.132813.605469.320313.855469.566406.246093.242188.4375.523438.570312.84375.136719.320313.207031.652344.207031.996094l.019532 3.488281.285156 49.972656.015625 2.332032c0 .347656-.066406.683594-.199219 1.003906-.132812.324219-.320312.605469-.570312.855469-.246094.246093-.53125.4375-.851563.570312-.324219.136719-.660156.203125-1.011719.207031l-49.867187.132813zm49.558594-60.808594h-.011719l-5.949219.015625-36.96875.066406-6.960937.03125c-.304687 0-.597656.0625-.878906.179688-.277344.113281-.527344.28125-.742188.496094-.214843.214844-.378906.460937-.492187.742187-.117188.28125-.175782.570313-.171875.871094l.015625 3.339844.289062 49.960937.015625 2.484375c0 .300781.0625.589844.179688.867188.117187.277343.285156.523437.5.734375.214843.210937.460937.375.742187.492187.28125.113281.570313.171875.875.175781h.011719l49.871094-.125c.300781-.003906.59375-.066406.875-.183593.28125-.117188.527343-.28125.742187-.496094s.378906-.460937.496094-.742187c.113281-.277344.171875-.570313.171875-.871094l-.011719-2.332032-.289062-49.960937-.019532-3.488281c0-.300782-.0625-.589844-.179687-.867188s-.285156-.523437-.5-.734375c-.214844-.210937-.460937-.375-.742187-.492187-.28125-.113282-.570313-.171875-.875-.175782zm0 0" fill="#2b2b2b"/><path d="m27.058594 35.546875h12.179687c.386719 0 .769531.035156 1.152344.113281.378906.074219.746094.183594 1.105469.332032.355468.144531.695312.324218 1.015625.539062.324219.214844.621093.457031.894531.726562.273438.273438.519531.566407.734375.886719.214844.320313.394531.65625.542969 1.011719.148437.355469.261718.71875.335937 1.097656.074219.375.113281.753906.113281 1.140625v.628907c0 .382812-.039062.765624-.113281 1.140624s-.1875.742188-.335937 1.097657c-.148438.355469-.328125.691406-.542969 1.011719-.214844.316406-.460937.613281-.734375.882812-.273438.273438-.570312.515625-.894531.730469-.320313.210937-.660157.390625-1.015625.539062-.359375.144531-.726563.257813-1.105469.332031-.382813.074219-.765625.113282-1.152344.113282h-12.179687c-.386719 0-.769532-.039063-1.148438-.113282-.378906-.074218-.75-.1875-1.105468-.332031-.359376-.148437-.699219-.328125-1.019532-.539062-.320312-.214844-.621094-.457031-.894531-.730469-.273437-.269531-.515625-.566406-.730469-.882812-.214844-.320313-.398437-.65625-.546875-1.011719-.148437-.355469-.257812-.722657-.335937-1.097657-.074219-.375-.113282-.757812-.113282-1.140624v-.628907c0-.386719.039063-.765625.113282-1.140625.078125-.378906.1875-.742187.335937-1.097656.148438-.355469.332031-.691406.546875-1.011719.214844-.320312.457032-.613281.730469-.886719.273437-.269531.574219-.511718.894531-.726562.320313-.214844.660156-.394531 1.019532-.539062.355468-.148438.726562-.257813 1.105468-.332032.378906-.078125.761719-.113281 1.148438-.113281zm0 0" fill="#f5f5f5"/><path d="m41.550781 38.832031h-16.667969c-.085937-.023437-.128906-.078125-.128906-.167969 0-.089843.042969-.148437.128906-.171874h16.667969c.054688-.015626.105469-.003907.152344.03125.046875.035156.070313.082031.070313.140624 0 .054688-.023438.101563-.070313.136719-.046875.035157-.097656.046875-.152344.03125zm0 0" fill="#2b2b2b"/><path d="m41.550781 42.1875h-16.667969c-.085937-.023438-.128906-.082031-.128906-.171875s.042969-.144531.128906-.171875h16.667969c.054688-.011719.105469-.003906.152344.03125s.070313.082031.070313.140625-.023438.105469-.070313.140625-.097656.042969-.152344.03125zm0 0" fill="#2b2b2b"/><path d="m41.550781 45.539062h-16.667969c-.085937-.023437-.128906-.082031-.128906-.171874 0-.089844.042969-.144532.128906-.171876h16.667969c.054688-.011718.105469-.003906.152344.03125.046875.035157.070313.082032.070313.140626 0 .058593-.023438.105468-.070313.140624-.046875.035157-.097656.042969-.152344.03125zm0 0" fill="#2b2b2b"/><path d="m45.410156 52.789062h12.179688c.386718 0 .773437.039063 1.152344.113282.378906.074218.746093.1875 1.105468.332031.355469.148437.695313.328125 1.019532.542969.320312.210937.617187.453125.890624.726562.273438.269532.519532.566406.734376.882813.214843.320312.394531.65625.542968 1.011719.148438.355468.261719.722656.335938 1.097656.074218.375.113281.757812.113281 1.140625v.632812c0 .382813-.039063.761719-.113281 1.140625-.074219.375-.1875.742188-.335938 1.09375-.148437.355469-.328125.691406-.542968 1.011719-.214844.320313-.460938.613281-.734376.886719-.273437.269531-.570312.511718-.890624.726562-.324219.214844-.664063.394532-1.019532.539063-.359375.148437-.726562.257812-1.105468.335937-.378907.074219-.765626.109375-1.152344.109375h-12.179688c-.386718 0-.769531-.035156-1.148437-.109375-.378907-.078125-.75-.1875-1.105469-.335937-.359375-.144531-.699219-.324219-1.019531-.539063-.320313-.214844-.617188-.457031-.894531-.726562-.273438-.273438-.515626-.566406-.730469-.886719-.214844-.320313-.398438-.65625-.546875-1.011719-.144532-.351562-.257813-.71875-.332032-1.09375-.078124-.378906-.113281-.757812-.113281-1.140625v-.632812c0-.382813.035157-.765625.113281-1.140625.074219-.375.1875-.742188.332032-1.097656.148437-.355469.332031-.691407.546875-1.011719.214843-.316407.457031-.613281.730469-.882813.277343-.273437.574218-.515625.894531-.726562.320312-.214844.660156-.394532 1.019531-.542969.355469-.144531.726562-.257813 1.105469-.332031.378906-.074219.761719-.113282 1.148437-.113282zm0 0" fill="#f5f5f5"/><path d="m59.894531 56.078125h-16.660156c-.085937-.023437-.128906-.082031-.128906-.171875s.042969-.144531.128906-.167969h16.660156c.054688-.015625.105469-.007812.152344.027344s.070313.082031.070313.140625-.023438.105469-.070313.140625-.097656.042969-.152344.03125zm0 0" fill="#2b2b2b"/><path d="m59.894531 59.429688h-16.660156c-.085937-.023438-.128906-.082032-.128906-.171876 0-.089843.042969-.144531.128906-.167968h16.660156c.054688-.015625.105469-.007813.152344.027344.046875.035156.070313.082031.070313.140624 0 .058594-.023438.105469-.070313.140626-.046875.035156-.097656.042968-.152344.03125zm0 0" fill="#2b2b2b"/><path d="m59.894531 62.78125h-16.660156c-.085937-.023438-.128906-.082031-.128906-.167969 0-.089843.042969-.148437.128906-.171875h16.660156c.054688-.015625.105469-.003906.152344.03125s.070313.082032.070313.140625c0 .054688-.023438.101563-.070313.136719s-.097656.046875-.152344.03125zm0 0" fill="#2b2b2b"/><g fill="#ffc010"><path d="m51.8125 36.601562h.445312c.285157 0 .558594.054688.820313.160157.261719.109375.492187.261719.695313.460937.199218.199219.355468.429688.464843.691406.105469.261719.160157.53125.160157.8125v.441407c0 .28125-.054688.554687-.160157.8125-.109375.261719-.265625.492187-.464843.691406-.203126.199219-.433594.351563-.695313.460937-.261719.105469-.535156.160157-.820313.160157h-.445312c-.285156 0-.558594-.054688-.820312-.160157-.261719-.109374-.496094-.261718-.695313-.460937s-.355469-.429687-.464844-.691406c-.109375-.257813-.164062-.53125-.164062-.8125v-.441407c0-.28125.054687-.550781.164062-.8125.109375-.261718.265625-.492187.464844-.691406.199219-.199218.433594-.351562.695313-.460937.261718-.105469.535156-.160157.820312-.160157zm0 0"/><path d="m59.441406 36.601562h.445313c.285156 0 .558593.054688.820312.160157.261719.109375.492188.261719.695313.460937.199218.199219.355468.429688.464844.691406.105468.261719.160156.53125.160156.8125v.441407c0 .28125-.054688.554687-.160156.8125-.109376.261719-.265626.492187-.464844.691406-.203125.199219-.433594.351563-.695313.460937-.261719.105469-.535156.160157-.820312.160157h-.445313c-.285156 0-.558594-.054688-.820312-.160157-.261719-.109374-.496094-.261718-.695313-.460937s-.355469-.429687-.464843-.691406c-.109376-.257813-.164063-.53125-.164063-.8125v-.441407c0-.28125.054687-.550781.164063-.8125.109374-.261718.265624-.492187.464843-.691406.199219-.199218.433594-.351562.695313-.460937.261718-.105469.535156-.160157.820312-.160157zm0 0"/><path d="m51.8125 43.019531h.445312c.285157 0 .558594.054688.820313.164063.261719.105468.492187.261718.695313.460937.199218.199219.355468.429688.464843.6875.105469.261719.160157.53125.160157.8125v.445313c0 .28125-.054688.550781-.160157.8125-.109375.257812-.265625.488281-.464843.6875-.203126.199218-.433594.355468-.695313.460937-.261719.109375-.535156.164063-.820313.164063h-.445312c-.285156 0-.558594-.054688-.820312-.164063-.261719-.105469-.496094-.261719-.695313-.460937-.199219-.199219-.355469-.429688-.464844-.6875-.109375-.261719-.164062-.53125-.164062-.8125v-.445313c0-.28125.054687-.550781.164062-.8125.109375-.257812.265625-.488281.464844-.6875s.433594-.355469.695313-.460937c.261718-.109375.535156-.164063.820312-.164063zm0 0"/><path d="m59.441406 43.019531h.445313c.285156 0 .558593.054688.820312.164063.261719.105468.492188.261718.695313.460937.199218.199219.355468.429688.464844.6875.105468.261719.160156.53125.160156.8125v.445313c0 .28125-.054688.550781-.160156.8125-.109376.257812-.265626.488281-.464844.6875-.203125.199218-.433594.355468-.695313.460937-.261719.109375-.535156.164063-.820312.164063h-.445313c-.285156 0-.558594-.054688-.820312-.164063-.261719-.105469-.496094-.261719-.695313-.460937-.199219-.199219-.355469-.429688-.464843-.6875-.109376-.261719-.164063-.53125-.164063-.8125v-.445313c0-.28125.054687-.550781.164063-.8125.109374-.257812.265624-.488281.464843-.6875s.433594-.355469.695313-.460937c.261718-.109375.535156-.164063.820312-.164063zm0 0"/><path d="m26.109375 53.703125h.445313c.285156 0 .558593.054687.820312.160156.261719.109375.492188.261719.695312.460938.199219.199219.355469.429687.464844.691406.109375.257813.160156.53125.160156.8125v.441406c0 .28125-.050781.554688-.160156.8125-.109375.261719-.265625.492188-.464844.691407-.203124.199218-.433593.351562-.695312.460937-.261719.105469-.535156.160156-.820312.160156h-.445313c-.285156 0-.558594-.054687-.820313-.160156-.261718-.109375-.492187-.261719-.695312-.460937-.199219-.199219-.355469-.429688-.464844-.691407-.109375-.257812-.164062-.53125-.164062-.8125v-.441406c0-.28125.054687-.554687.164062-.8125.109375-.261719.265625-.492187.464844-.691406.203125-.199219.433594-.351563.695312-.460938.261719-.105469.535157-.160156.820313-.160156zm0 0"/><path d="m33.734375 53.703125h.449219c.28125 0 .554687.054687.816406.160156.265625.109375.496094.261719.695312.460938.203126.199219.355469.429687.464844.691406.109375.257813.164063.53125.164063.8125v.441406c0 .28125-.054688.554688-.164063.8125-.109375.261719-.261718.492188-.464844.691407-.199218.199218-.429687.351562-.695312.460937-.261719.105469-.535156.160156-.816406.160156h-.449219c-.28125 0-.554687-.054687-.816406-.160156-.265625-.109375-.496094-.261719-.695313-.460937-.203125-.199219-.355468-.429688-.464844-.691407-.109374-.257812-.164062-.53125-.164062-.8125v-.441406c0-.28125.054688-.554687.164062-.8125.109376-.261719.261719-.492187.464844-.691406.199219-.199219.429688-.351563.695313-.460938.261719-.105469.535156-.160156.816406-.160156zm0 0"/><path d="m26.109375 60.121094h.445313c.285156 0 .558593.054687.820312.164062.261719.105469.492188.261719.695312.460938.199219.199218.355469.429687.464844.6875.109375.261718.160156.53125.160156.8125v.445312c0 .28125-.050781.550782-.160156.8125-.109375.257813-.265625.488282-.464844.6875-.203124.199219-.433593.355469-.695312.460938-.261719.109375-.535156.164062-.820312.164062h-.445313c-.285156 0-.558594-.054687-.820313-.164062-.261718-.105469-.492187-.261719-.695312-.460938-.199219-.199218-.355469-.429687-.464844-.6875-.109375-.261718-.164062-.53125-.164062-.8125v-.445312c0-.28125.054687-.550782.164062-.8125.109375-.257813.265625-.488282.464844-.6875.203125-.199219.433594-.355469.695312-.460938.261719-.109375.535157-.164062.820313-.164062zm0 0"/><path d="m33.734375 60.121094h.449219c.28125 0 .554687.054687.816406.164062.265625.105469.496094.261719.695312.460938.203126.199218.355469.429687.464844.6875.109375.261718.164063.53125.164063.8125v.445312c0 .28125-.054688.550782-.164063.8125-.109375.257813-.261718.488282-.464844.6875-.199218.199219-.429687.355469-.695312.460938-.261719.109375-.535156.164062-.816406.164062h-.449219c-.28125 0-.554687-.054687-.816406-.164062-.265625-.105469-.496094-.261719-.695313-.460938-.203125-.199218-.355468-.429687-.464844-.6875-.109374-.261718-.164062-.53125-.164062-.8125v-.445312c0-.28125.054688-.550782.164062-.8125.109376-.257813.261719-.488282.464844-.6875.199219-.199219.429688-.355469.695313-.460938.261719-.109375.535156-.164062.816406-.164062zm0 0"/></g><path d="m23.910156 70.703125h37.542969c.214844 0 .417969.039063.613281.121094.195313.082031.371094.195312.519532.34375.152343.148437.265624.320312.347656.515625.082031.195312.121094.398437.121094.605468 0 .210938-.039063.414063-.121094.609376-.082032.195312-.195313.367187-.347656.515624-.148438.148438-.324219.261719-.519532.34375-.195312.078126-.398437.121094-.613281.121094h-37.542969c-.210937 0-.417968-.042968-.613281-.121094-.195313-.082031-.367187-.195312-.519531-.34375-.148438-.148437-.265625-.320312-.347656-.515624-.078126-.195313-.121094-.398438-.121094-.609376 0-.207031.042968-.410156.121094-.605468.082031-.195313.199218-.367188.347656-.515625.152344-.148438.324218-.261719.519531-.34375s.402344-.121094.613281-.121094zm0 0" fill="#f5f5f5"/><path d="m24.035156 75.628906h37.542969c.214844 0 .417969.039063.613281.121094.195313.082031.371094.195312.519532.34375.148437.148438.265624.320312.347656.515625.082031.195313.121094.394531.121094.605469 0 .210937-.039063.414062-.121094.609375-.082032.191406-.199219.363281-.347656.511719-.148438.152343-.324219.265624-.519532.347656-.195312.078125-.398437.117187-.613281.117187h-37.542969c-.214844 0-.417968-.039062-.613281-.117187-.195313-.082032-.371094-.195313-.519531-.347656-.148438-.148438-.265625-.320313-.347656-.511719-.082032-.195313-.121094-.398438-.121094-.609375 0-.210938.039062-.410156.121094-.605469.082031-.195313.199218-.367187.347656-.515625.148437-.148438.324218-.261719.519531-.34375s.398437-.121094.613281-.121094zm0 0" fill="#2b2b2b"/><path d="m69.949219 63.554688c-.417969-1.007813-.066407-1.085938-1.515625-3.082032-.886719-1.234375-2.347656-2.007812-3.109375-1.613281-.574219-.722656-1.191407-1.414063-1.84375-2.070313-1.660157-1.683593-2.320313-1.714843-2.625-1.332031-.378907.480469.535156 1.332031 1.519531 2.542969.371094.460938 1.050781 1.234375 1.050781 1.234375-.179687-.078125-.359375-.085937-.542969-.023437-.183593.0625-.320312.175781-.414062.34375-.339844.589843.117188 1.15625.117188 1.15625-.171876-.015626-.328126.023437-.472657.117187-.140625.089844-.242187.214844-.300781.375-.214844.5625.402344 1.007813.402344 1.007813s-.824219.453124-.199219 1.277343c.625.828125 2.523437 2.359375 3.75 2.6875 1.230469.328125 2.785156 1.585938 2.785156 1.585938s3.910157 1.179687 4.5625-.820313c0-.011718-2.699219-2.257812-3.164062-3.386718zm0 0" fill="#ffe1b6"/><path d="m91.089844 64.421875c-.441406-4.027344-1.9375-12.3125-5.132813-13.535156-5.023437-1.914063-5.167969 11.613281-5.066406 16.613281-3.128906-1.089844-8.433594-4.84375-10.742187-5.335938-.992188-.214843-3.8125.703126-4.363282 4.933594-.574218 4.371094 12.09375 12.550782 20.199219 12.425782 6.769531-.105469 5.519531-12.375 5.105469-15.101563zm0 0" fill="#ffc010"/><path d="m85.796875 79.699219c-2.8125 0-6.339844-.96875-9.964844-2.730469-3.390625-1.648438-6.519531-3.863281-8.371093-5.917969-1.351563-1.5-1.988282-2.875-1.847657-3.972656.335938-2.550781 1.457031-3.824219 2.339844-4.441406.847656-.59375 1.730469-.75 2.234375-.640625 1.226562.261718 3.238281 1.410156 5.367188 2.613281 1.824218 1.03125 3.703124 2.097656 5.152343 2.640625-.050781-2.859375 0-7.953125.824219-11.734375.039062-.082031.105469-.113281.195312-.09375.089844.019531.136719.074219.140626.164063-.839844 3.863281-.871094 9.117187-.8125 11.90625.003906.0625-.019532.109374-.070313.140624-.046875.035157-.101563.042969-.15625.023438-1.507813-.527344-3.507813-1.660156-5.441406-2.753906-2.109375-1.195313-4.097657-2.324219-5.273438-2.578125-.429687-.089844-1.203125.054687-1.964843.585937-.824219.578125-1.875 1.777344-2.191407 4.210938-.132812.996094.476563 2.273437 1.761719 3.699218 3.695312 4.105469 12.292969 8.625 18.265625 8.527344.621094.007813 1.21875-.121094 1.78125-.382812.566406-.265625 1.046875-.632813 1.445313-1.113282 3.09375-3.621093 1.859374-12.417968 1.707031-13.410156-.023438-.054687-.019531-.105468.007812-.15625.027344-.050781.070313-.078125.128907-.089844.058593-.007812.109374.007813.148437.046876.042969.042968.0625.089843.054687.148437.152344 1.007813 1.402344 9.941406-1.785156 13.683594-.429687.515625-.949218.914062-1.558594 1.199219-.609374.28125-1.253906.421874-1.925781.417968zm0 0" fill="#2b2b2b"/><path d="m12.65625 56.890625h4.515625c.261719 0 .519531.023437.777344.074219.257812.050781.507812.125.75.226562.242187.097656.472656.222656.691406.367188.21875.144531.417969.308594.605469.492187.183594.183594.351562.382813.496094.597657.144531.21875.269531.445312.371093.6875.097657.238281.175781.488281.226563.742187.050781.253906.074218.511719.074218.773437 0 .261719-.023437.519532-.074218.773438-.050782.253906-.128906.503906-.226563.742188-.101562.242187-.226562.46875-.371093.6875-.144532.214843-.3125.414062-.496094.597656-.1875.1875-.386719.351562-.605469.496094-.21875.144531-.449219.265624-.691406.363281-.242188.101562-.492188.175781-.75.226562-.257813.050781-.515625.078125-.777344.078125h-4.515625c-.261719 0-.523438-.027344-.78125-.078125s-.503906-.125-.75-.226562c-.242188-.097657-.472656-.21875-.6875-.363281-.21875-.144532-.421875-.308594-.605469-.496094-.1875-.183594-.351562-.382813-.496093-.597656-.148438-.21875-.269532-.445313-.371094-.6875-.101563-.238282-.175782-.488282-.226563-.742188s-.078125-.511719-.078125-.773438c0-.261718.027344-.519531.078125-.773437s.125-.503906.226563-.742187c.101562-.242188.222656-.46875.371094-.6875.144531-.214844.308593-.414063.496093-.597657.183594-.183593.386719-.347656.605469-.492187.214844-.144532.445312-.269532.6875-.367188.246094-.101562.492188-.175781.75-.226562.257812-.050782.519531-.074219.78125-.074219zm0 0" fill="#2b2b2b"/><path d="m13.507812 59.242188v3.019531c0 .042969.011719.085937.035157.125.023437.039062.054687.070312.09375.089843.039062.023438.082031.035157.128906.035157.042969 0 .085937-.007813.125-.03125l2.65625-1.507813c.085937-.050781.128906-.125.128906-.222656s-.042969-.171875-.128906-.21875l-2.65625-1.507812c-.039063-.023438-.082031-.035157-.125-.035157-.046875.003907-.089844.011719-.128906.035157-.039063.023437-.070313.054687-.09375.09375-.023438.039062-.035157.082031-.035157.125zm0 0" fill="#fff"/><path d="m68.707031 19.113281h-10.351562c-.25 0-.488281-.046875-.71875-.140625s-.4375-.230468-.613281-.40625c-.175782-.175781-.3125-.375-.410157-.605468-.09375-.226563-.140625-.464844-.144531-.714844v-2.734375c.003906-.25.050781-.488281.144531-.71875.097657-.226563.234375-.429688.410157-.605469.175781-.171875.382812-.308594.613281-.402344s.46875-.140625.71875-.140625h10.351562c.25 0 .488281.046875.71875.140625.230469.097656.433594.230469.609375.40625.179688.175782.3125.375.410156.605469.09375.226563.144532.464844.144532.714844v2.734375c0 .246094-.050782.484375-.144532.714844-.097656.226562-.230468.429687-.410156.605468-.175781.175782-.378906.308594-.609375.402344-.230469.097656-.46875.144531-.71875.144531zm-10.351562-6.128906c-.203125 0-.398438.039063-.585938.117187-.1875.078126-.351562.1875-.496093.332032-.140626.144531-.253907.308594-.332032.496094-.078125.183593-.117187.378906-.117187.582031v2.734375c.003906.203125.042969.398437.121093.582031.078126.1875.1875.351563.332032.496094.144531.144531.308594.253906.5.332031.1875.078125.382812.117188.585937.117188h10.351563c.203125 0 .398437-.039063.585937-.117188.191407-.078125.355469-.1875.5-.332031.144531-.140625.257813-.308594.335938-.492188.078125-.1875.117187-.382812.117187-.585937v-2.734375c0-.203125-.039062-.398438-.117187-.585938s-.191407-.351562-.335938-.496093c-.144531-.140626-.308593-.253907-.496093-.328126-.191407-.078124-.386719-.117187-.589844-.117187zm0 0" fill="#2b2b2b"/><path d="m59.738281 12.8125h6.675781c.410157 0 .804688.078125 1.183594.234375s.710938.375 1.003906.664063c.289063.285156.511719.617187.667969.992187.15625.378906.234375.769531.234375 1.175781s-.078125.796875-.234375 1.171875-.378906.707031-.667969.992188c-.292968.289062-.625.511719-1.003906.664062-.378906.15625-.773437.234375-1.183594.234375h-6.675781c-.410156 0-.804687-.078125-1.183593-.234375-.378907-.152343-.710938-.375-1-.664062-.292969-.285157-.515626-.617188-.671876-.992188s-.234374-.765625-.234374-1.171875.078124-.796875.234374-1.175781c.15625-.375.378907-.707031.671876-.992187.289062-.289063.621093-.507813 1-.664063.378906-.15625.773437-.234375 1.183593-.234375zm0 0" fill="#2b2b2b"/><path d="m61.089844 17.695312c-.0625 0-.117188-.015624-.167969-.050781l-2.308594-1.535156c-.085937-.058594-.132812-.140625-.132812-.246094s.042969-.1875.128906-.246093l2.308594-1.585938c.070312-.042969.140625-.058594.222656-.042969.078125.015625.140625.058594.1875.121094.046875.066406.0625.140625.050781.21875-.015625.082031-.054687.144531-.121094.191406l-1.945312 1.339844 1.941406 1.289063c.128906.085937.167969.199218.121094.339843-.046875.144531-.148438.214844-.296875.207031zm0 0" fill="#fff"/><path d="m65.820312 17.695312c-.152343 0-.246093-.070312-.289062-.210937s-.003906-.253906.121094-.335937l1.941406-1.289063-1.945312-1.335937c-.066407-.046876-.105469-.109376-.117188-.191407-.015625-.078125 0-.152343.046875-.21875.046875-.066406.109375-.105469.191406-.121093.078125-.015626.152344 0 .21875.042968l2.308594 1.585938c.089844.058594.132813.140625.132813.246094 0 .105468-.042969.1875-.132813.246093l-2.308594 1.535157c-.050781.035156-.105469.050781-.167969.046874zm0 0" fill="#fff"/><path d="m63.074219 18.144531c-.03125 0-.066407-.003906-.097657-.015625-.078124-.027344-.132812-.078125-.167968-.152344-.035156-.074218-.039063-.148437-.007813-.226562l1.347657-3.875c.027343-.078125.078124-.136719.152343-.171875s.148438-.039063.226563-.015625c.082031.027344.136718.078125.175781.152344.035156.074218.039063.148437.011719.226562l-1.347656 3.878906c-.046876.136719-.144532.203126-.292969.199219zm0 0" fill="#fff"/></svg>