<svg xmlns="http://www.w3.org/2000/svg" xmlns:xlink="http://www.w3.org/1999/xlink" width="340" zoomAndPan="magnify" viewBox="0 0 255 270" height="360" preserveAspectRatio="xMidYMid meet" version="1"><defs><filter x="0%" y="0%" width="100%" height="100%" id="6ac2603475"><feColorMatrix values="0 0 0 0 1 0 0 0 0 1 0 0 0 0 1 0 0 0 1 0" color-interpolation-filters="sRGB"/></filter><mask id="aaa02f6655"><g filter="url(#6ac2603475)"><rect x="-25.5" width="306" fill="#000" y="-27" height="324" fill-opacity=".03"/></g></mask><clipPath id="9c6edddc41"><path d="M 1 0 L 252 0 L 252 270 L 1 270 Z M 1 0" clip-rule="nonzero"/></clipPath><clipPath id="5e12f90390"><path d="M 40 35 L 252 35 L 252 270 L 40 270 Z M 40 35" clip-rule="nonzero"/></clipPath><clipPath id="92a94c4858"><path d="M 78 73 L 252 73 L 252 270 L 78 270 Z M 78 73" clip-rule="nonzero"/></clipPath><clipPath id="ed1ca67eda"><path d="M 117 112 L 252 112 L 252 270 L 117 270 Z M 117 112" clip-rule="nonzero"/></clipPath><clipPath id="d99207b102"><path d="M 156 150 L 252 150 L 252 270 L 156 270 Z M 156 150" clip-rule="nonzero"/></clipPath><clipPath id="30264ea06a"><path d="M 194 188 L 252 188 L 252 270 L 194 270 Z M 194 188" clip-rule="nonzero"/></clipPath><clipPath id="9f2fcc2d0f"><path d="M 232 226 L 252 226 L 252 270 L 232 270 Z M 232 226" clip-rule="nonzero"/></clipPath><clipPath id="db34c47151"><rect x="0" width="252" y="0" height="270"/></clipPath></defs><g mask="url(#aaa02f6655)"><g><g clip-path="url(#db34c47151)" transform="matrix(1, 0, 0, 1, 3, 0)"><g clip-path="url(#9c6edddc41)"><path fill="#ffde59" d="M 16.8125 322.085938 C 6.242188 296.859375 -2.710938 272.269531 3.71875 248.640625 C 9.34375 227.96875 27.230469 209.636719 52.800781 198.347656 C 69.5 190.972656 87.625 186.894531 105.160156 182.949219 C 115.785156 180.5625 126.777344 178.085938 137.34375 174.90625 C 161.382812 167.664062 192.597656 152.9375 204.816406 123.863281 C 210.34375 110.707031 211.273438 95.945312 212.171875 81.671875 C 213.179688 65.628906 214.226562 49.027344 221.851562 34.757812 C 231.5 16.679688 252.105469 3.226562 276.988281 -1.230469 C 299.484375 -5.261719 322.417969 -2.402344 344.605469 0.363281 L 344.511719 1.132812 C 322.386719 -1.621094 299.507812 -4.472656 277.128906 -0.464844 C 252.488281 3.945312 232.085938 17.25 222.546875 35.117188 C 215.007812 49.246094 213.96875 65.753906 212.960938 81.71875 C 212.054688 96.054688 211.125 110.878906 205.542969 124.160156 C 193.207031 153.515625 161.773438 168.359375 137.578125 175.648438 C 126.988281 178.835938 115.988281 181.3125 105.347656 183.707031 C 87.851562 187.644531 69.765625 191.714844 53.136719 199.058594 C 27.785156 210.253906 10.054688 228.398438 4.492188 248.84375 C -1.867188 272.230469 7.039062 296.6875 17.554688 321.78125 L 16.835938 322.085938 Z M 16.8125 322.085938" fill-opacity="1" fill-rule="nonzero"/></g><g clip-path="url(#5e12f90390)"><path fill="#ffde59" d="M 53.136719 321.703125 C 44.628906 301.96875 36.089844 279.082031 42.527344 257.097656 C 44.667969 249.765625 48.480469 242.828125 53.863281 236.476562 C 61.804688 227.101562 73.023438 219.109375 86.296875 213.371094 C 101.019531 206.996094 116.988281 203.472656 132.425781 200.074219 L 135.320312 199.433594 C 143.578125 197.605469 152.351562 195.613281 160.820312 193.097656 C 177.832031 188.058594 200.949219 178.140625 214.40625 159.484375 C 216.859375 156.078125 218.9375 152.453125 220.585938 148.710938 C 225.671875 137.113281 226.734375 124.042969 227.757812 111.402344 C 228.890625 97.476562 230.054688 83.078125 236.617188 70.589844 C 238.6875 66.644531 241.304688 62.910156 244.402344 59.488281 C 253.949219 48.941406 268.089844 41.253906 284.226562 37.847656 C 304.140625 33.609375 325.246094 35.742188 343.472656 38.074219 L 343.371094 38.847656 C 325.207031 36.523438 304.179688 34.398438 284.382812 38.613281 C 268.410156 41.988281 254.417969 49.589844 244.980469 60.019531 C 241.929688 63.394531 239.351562 67.074219 237.3125 70.957031 C 230.828125 83.304688 229.664062 97.625 228.539062 111.464844 C 227.507812 124.167969 226.4375 137.300781 221.304688 149.023438 C 219.640625 152.820312 217.53125 156.492188 215.046875 159.945312 C 201.457031 178.78125 178.175781 188.777344 161.046875 193.855469 C 152.546875 196.371094 143.757812 198.371094 135.492188 200.199219 L 132.597656 200.839844 C 117.191406 204.238281 101.269531 207.753906 86.609375 214.097656 C 73.445312 219.789062 62.328125 227.703125 54.464844 236.984375 C 49.160156 243.25 45.394531 250.09375 43.285156 257.316406 C 36.917969 279.050781 45.402344 301.78125 53.855469 321.390625 Z M 53.136719 321.703125" fill-opacity="1" fill-rule="nonzero"/></g><g clip-path="url(#92a94c4858)"><path fill="#ffde59" d="M 89.460938 321.320312 C 82.40625 305.554688 75.109375 284.964844 81.34375 265.558594 C 83.351562 259.269531 86.765625 253.351562 91.492188 247.96875 C 98.496094 240.007812 108.285156 233.242188 119.792969 228.40625 C 132.550781 223.03125 146.34375 220.070312 159.695312 217.207031 L 162.25 216.660156 C 169.367188 215.128906 176.925781 213.449219 184.308594 211.308594 C 205.394531 205.207031 221.5 195.332031 230.890625 182.753906 C 233.054688 179.859375 234.898438 176.765625 236.382812 173.570312 C 241.039062 163.507812 242.234375 152.109375 243.398438 141.097656 C 244.636719 129.316406 245.917969 117.128906 251.410156 106.445312 C 253.175781 103.015625 255.378906 99.75 257.972656 96.75 C 265.996094 87.445312 277.902344 80.414062 291.492188 76.945312 C 309.335938 72.324219 328.050781 73.90625 342.363281 75.796875 L 342.261719 76.570312 C 328.019531 74.679688 309.40625 73.101562 291.6875 77.695312 C 278.253906 81.125 266.488281 88.0625 258.566406 97.25 C 256.011719 100.210938 253.839844 103.421875 252.105469 106.796875 C 246.683594 117.347656 245.410156 129.457031 244.175781 141.167969 C 243.015625 152.25 241.804688 163.710938 237.09375 173.890625 C 235.59375 177.140625 233.71875 180.28125 231.523438 183.214844 C 222.03125 195.933594 205.785156 205.902344 184.535156 212.058594 C 177.128906 214.207031 169.546875 215.886719 162.421875 217.417969 L 159.867188 217.964844 C 146.554688 220.820312 132.792969 223.773438 120.105469 229.117188 C 108.707031 233.914062 99.011719 240.609375 92.085938 248.476562 C 87.429688 253.773438 84.070312 259.597656 82.09375 265.785156 C 75.9375 284.949219 83.179688 305.351562 90.179688 320.992188 L 89.46875 321.3125 Z M 89.460938 321.320312" fill-opacity="1" fill-rule="nonzero"/></g><g clip-path="url(#ed1ca67eda)"><path fill="#ffde59" d="M 125.785156 320.9375 C 117.316406 302.921875 115.425781 287.136719 120.160156 274.003906 C 122.035156 268.753906 125.058594 263.855469 129.128906 259.449219 C 135.1875 252.914062 143.546875 247.375 153.296875 243.429688 C 164.078125 239.0625 175.714844 236.65625 186.964844 234.328125 L 189.167969 233.875 C 195.136719 232.632812 201.496094 231.28125 207.789062 229.507812 C 225.8125 224.453125 239.125 216.550781 247.355469 206.019531 C 249.222656 203.628906 250.839844 201.066406 252.160156 198.410156 C 256.410156 189.863281 257.761719 180.109375 259.066406 170.664062 C 260.394531 161.054688 261.777344 151.109375 266.183594 142.277344 C 267.636719 139.363281 269.433594 136.574219 271.519531 133.980469 C 277.988281 125.964844 287.648438 119.589844 298.726562 116.019531 C 311.023438 112.066406 324.925781 111.238281 341.238281 113.503906 L 341.128906 114.277344 C 324.941406 112.035156 311.148438 112.847656 298.96875 116.761719 C 288.03125 120.277344 278.503906 126.566406 272.128906 134.464844 C 270.074219 137.011719 268.316406 139.753906 266.886719 142.621094 C 262.535156 151.34375 261.167969 161.21875 259.847656 170.765625 C 258.535156 180.265625 257.167969 190.089844 252.863281 198.746094 C 251.519531 201.449219 249.878906 204.050781 247.980469 206.488281 C 239.648438 217.160156 226.203125 225.148438 208.007812 230.25 C 201.691406 232.023438 195.316406 233.382812 189.332031 234.625 L 187.121094 235.078125 C 175.902344 237.398438 164.304688 239.796875 153.585938 244.140625 C 143.945312 248.039062 135.679688 253.515625 129.699219 259.964844 C 125.699219 264.292969 122.738281 269.097656 120.894531 274.253906 C 116.230469 287.175781 118.121094 302.765625 126.496094 320.585938 L 125.785156 320.921875 Z M 125.785156 320.9375" fill-opacity="1" fill-rule="nonzero"/></g><g clip-path="url(#d99207b102)"><path fill="#ffde59" d="M 162.109375 320.554688 C 155.382812 307.1875 154.265625 293.65625 158.976562 282.449219 C 160.726562 278.230469 163.351562 274.355469 166.757812 270.925781 C 171.949219 265.738281 178.683594 261.542969 186.792969 258.449219 C 195.605469 255.082031 205.074219 253.234375 214.234375 251.445312 L 216.09375 251.085938 C 220.710938 250.179688 226.070312 249.101562 231.28125 247.703125 C 245.949219 243.78125 256.902344 237.578125 263.832031 229.265625 C 265.402344 227.382812 266.785156 225.359375 267.949219 223.242188 C 271.847656 216.160156 273.378906 207.957031 274.863281 200.019531 C 276.238281 192.644531 277.667969 185.027344 280.960938 178.117188 C 282.109375 175.71875 283.492188 173.398438 285.070312 171.234375 C 290.023438 164.445312 297.445312 158.71875 305.96875 155.117188 C 316.363281 150.71875 327.855469 149.414062 340.121094 151.21875 L 340.003906 151.992188 C 327.886719 150.203125 316.527344 151.492188 306.265625 155.835938 C 297.875 159.382812 290.570312 165.015625 285.695312 171.695312 C 284.140625 173.828125 282.789062 176.101562 281.664062 178.460938 C 278.410156 185.277344 276.996094 192.847656 275.628906 200.175781 C 274.136719 208.167969 272.589844 216.441406 268.636719 223.625 C 267.449219 225.78125 266.035156 227.851562 264.441406 229.773438 C 257.410156 238.210938 246.316406 244.5 231.492188 248.46875 C 226.265625 249.867188 220.882812 250.953125 216.257812 251.859375 L 214.398438 252.21875 C 205.269531 254 195.832031 255.839844 187.082031 259.183594 C 179.082031 262.238281 172.433594 266.378906 167.320312 271.488281 C 163.976562 274.839844 161.414062 278.636719 159.703125 282.761719 C 155.085938 293.757812 156.1875 307.054688 162.8125 320.210938 L 162.117188 320.5625 Z M 162.109375 320.554688" fill-opacity="1" fill-rule="nonzero"/></g><g clip-path="url(#30264ea06a)"><path fill="#ffde59" d="M 198.441406 320.179688 C 193.292969 310.96875 193.058594 300.015625 197.800781 290.886719 C 199.433594 287.707031 201.660156 284.855469 204.402344 282.410156 C 208.609375 278.675781 213.960938 275.667969 220.296875 273.480469 C 227.140625 271.105469 234.453125 269.816406 241.53125 268.566406 L 243.023438 268.300781 C 246.792969 267.628906 250.832031 266.878906 254.769531 265.902344 C 266.269531 263.066406 274.621094 258.683594 280.3125 252.523438 C 281.578125 251.148438 282.734375 249.65625 283.742188 248.078125 C 287.4375 242.304688 289.15625 235.742188 290.984375 228.796875 C 292.28125 223.851562 293.625 218.742188 295.742188 213.972656 C 296.585938 212.082031 297.546875 210.238281 298.617188 208.503906 C 302.085938 202.871094 307.257812 197.800781 313.1875 194.230469 C 321.285156 189.347656 330.214844 187.519531 339.003906 188.941406 L 338.878906 189.714844 C 330.277344 188.324219 321.527344 190.113281 313.585938 194.902344 C 307.765625 198.410156 302.6875 203.386719 299.28125 208.910156 C 298.234375 210.621094 297.28125 212.425781 296.453125 214.292969 C 294.359375 219.007812 293.023438 224.085938 291.734375 229 C 289.976562 235.703125 288.15625 242.632812 284.398438 248.507812 C 283.367188 250.117188 282.1875 251.648438 280.882812 253.0625 C 275.089844 259.339844 266.605469 263.792969 254.957031 266.667969 C 250.996094 267.644531 246.949219 268.402344 243.160156 269.074219 L 241.671875 269.339844 C 234.625 270.582031 227.335938 271.871094 220.554688 274.222656 C 214.3125 276.378906 209.054688 279.332031 204.917969 282.996094 C 202.246094 285.378906 200.082031 288.152344 198.488281 291.25 C 193.863281 300.15625 194.097656 310.828125 199.121094 319.804688 L 198.441406 320.1875 Z M 198.441406 320.179688" fill-opacity="1" fill-rule="nonzero"/></g><g clip-path="url(#9f2fcc2d0f)"><path fill="#ffde59" d="M 234.78125 319.820312 C 229.15625 311.382812 234.007812 299.59375 242.0625 293.875 C 249.785156 288.402344 259.480469 287.011719 268.855469 285.675781 L 269.957031 285.519531 C 279.613281 284.136719 289.632812 282.238281 296.804688 275.769531 C 303.007812 270.160156 306.015625 261.988281 308.921875 254.09375 C 309.9375 251.335938 310.984375 248.492188 312.148438 245.789062 C 316.910156 234.757812 326.722656 224.5625 337.886719 226.664062 L 337.746094 227.429688 C 327.011719 225.421875 317.511719 235.351562 312.867188 246.09375 C 311.710938 248.773438 310.664062 251.617188 309.65625 254.359375 C 306.71875 262.347656 303.679688 270.613281 297.328125 276.347656 C 290 282.964844 279.847656 284.894531 270.074219 286.292969 L 268.972656 286.449219 C 259.691406 287.777344 250.089844 289.144531 242.523438 294.507812 C 234.921875 299.898438 230.140625 311.445312 235.4375 319.382812 L 234.789062 319.8125 Z M 234.78125 319.820312" fill-opacity="1" fill-rule="nonzero"/></g></g></g></g></svg>